<mxfile host="app.diagrams.net" modified="2023-08-13T02:08:05.595Z" agent="Mozilla/5.0 (Windows NT 10.0; Win64; x64) AppleWebKit/537.36 (KHTML, like Gecko) Chrome/115.0.0.0 Safari/537.36 Edg/115.0.1901.200" etag="JuKv8ep205J7lS1wYx8B" version="21.6.8" type="github">
  <diagram name="第 1 页" id="r15WnyIbl7V5eIKEfTqy">
    <mxGraphModel dx="1241" dy="653" grid="1" gridSize="10" guides="1" tooltips="1" connect="1" arrows="1" fold="1" page="1" pageScale="1" pageWidth="827" pageHeight="1169" math="0" shadow="0">
      <root>
        <mxCell id="0" />
        <mxCell id="1" parent="0" />
        <mxCell id="OJeF9dpvGbuUOfPej2OF-16" value="" style="ellipse;shape=cloud;whiteSpace=wrap;html=1;" vertex="1" parent="1">
          <mxGeometry x="220" y="190" width="560" height="385" as="geometry" />
        </mxCell>
        <mxCell id="OJeF9dpvGbuUOfPej2OF-41" value="" style="shape=ext;double=1;rounded=1;whiteSpace=wrap;html=1;" vertex="1" parent="1">
          <mxGeometry x="491" y="290.5" width="121" height="239" as="geometry" />
        </mxCell>
        <mxCell id="OJeF9dpvGbuUOfPej2OF-2" value="用户" style="shape=umlActor;verticalLabelPosition=bottom;verticalAlign=top;html=1;outlineConnect=0;" vertex="1" parent="1">
          <mxGeometry x="90" y="326" width="30" height="60" as="geometry" />
        </mxCell>
        <mxCell id="OJeF9dpvGbuUOfPej2OF-9" value="云取证平台" style="rounded=1;whiteSpace=wrap;html=1;" vertex="1" parent="1">
          <mxGeometry x="160" y="285" width="80" height="40" as="geometry" />
        </mxCell>
        <mxCell id="OJeF9dpvGbuUOfPej2OF-11" value="云实验室" style="rounded=1;whiteSpace=wrap;html=1;" vertex="1" parent="1">
          <mxGeometry x="320" y="300" width="80" height="40" as="geometry" />
        </mxCell>
        <mxCell id="OJeF9dpvGbuUOfPej2OF-12" value="ECS" style="rounded=1;whiteSpace=wrap;html=1;" vertex="1" parent="1">
          <mxGeometry x="502" y="310" width="90" height="30" as="geometry" />
        </mxCell>
        <mxCell id="OJeF9dpvGbuUOfPej2OF-13" value="OSS" style="rounded=1;whiteSpace=wrap;html=1;" vertex="1" parent="1">
          <mxGeometry x="502" y="350" width="90" height="30" as="geometry" />
        </mxCell>
        <mxCell id="OJeF9dpvGbuUOfPej2OF-14" value="NAS" style="rounded=1;whiteSpace=wrap;html=1;" vertex="1" parent="1">
          <mxGeometry x="502" y="390" width="90" height="30" as="geometry" />
        </mxCell>
        <mxCell id="OJeF9dpvGbuUOfPej2OF-15" value="DB" style="rounded=1;whiteSpace=wrap;html=1;" vertex="1" parent="1">
          <mxGeometry x="502" y="430" width="90" height="30" as="geometry" />
        </mxCell>
        <mxCell id="OJeF9dpvGbuUOfPej2OF-22" value="VPN&lt;br&gt;&amp;nbsp;服&lt;br&gt;务&lt;br&gt;端" style="rounded=1;whiteSpace=wrap;html=1;" vertex="1" parent="1">
          <mxGeometry x="340" y="351" width="40" height="102" as="geometry" />
        </mxCell>
        <mxCell id="OJeF9dpvGbuUOfPej2OF-24" value="VPN 客户端" style="rounded=1;whiteSpace=wrap;html=1;arcSize=45;" vertex="1" parent="1">
          <mxGeometry x="165" y="405" width="70" height="22" as="geometry" />
        </mxCell>
        <mxCell id="OJeF9dpvGbuUOfPej2OF-30" value="DB" style="rounded=1;whiteSpace=wrap;html=1;" vertex="1" parent="1">
          <mxGeometry x="510" y="435" width="90" height="30" as="geometry" />
        </mxCell>
        <mxCell id="OJeF9dpvGbuUOfPej2OF-31" value="NAS" style="rounded=1;whiteSpace=wrap;html=1;" vertex="1" parent="1">
          <mxGeometry x="510" y="394" width="90" height="30" as="geometry" />
        </mxCell>
        <mxCell id="OJeF9dpvGbuUOfPej2OF-32" value="OSS" style="rounded=1;whiteSpace=wrap;html=1;" vertex="1" parent="1">
          <mxGeometry x="510" y="355" width="90" height="30" as="geometry" />
        </mxCell>
        <mxCell id="OJeF9dpvGbuUOfPej2OF-33" value="ECS" style="rounded=1;whiteSpace=wrap;html=1;" vertex="1" parent="1">
          <mxGeometry x="509" y="315" width="90" height="30" as="geometry" />
        </mxCell>
        <mxCell id="OJeF9dpvGbuUOfPej2OF-34" value="...." style="rounded=1;whiteSpace=wrap;html=1;" vertex="1" parent="1">
          <mxGeometry x="502" y="475" width="90" height="30" as="geometry" />
        </mxCell>
        <mxCell id="OJeF9dpvGbuUOfPej2OF-35" value="" style="endArrow=none;dashed=1;html=1;rounded=0;exitX=1;exitY=0.25;exitDx=0;exitDy=0;entryX=0;entryY=0.5;entryDx=0;entryDy=0;" edge="1" parent="1" source="OJeF9dpvGbuUOfPej2OF-24" target="OJeF9dpvGbuUOfPej2OF-22">
          <mxGeometry width="50" height="50" relative="1" as="geometry">
            <mxPoint x="250" y="430" as="sourcePoint" />
            <mxPoint x="300" y="380" as="targetPoint" />
          </mxGeometry>
        </mxCell>
        <mxCell id="OJeF9dpvGbuUOfPej2OF-37" value="" style="endArrow=none;dashed=1;html=1;rounded=0;entryX=0;entryY=0.25;entryDx=0;entryDy=0;" edge="1" parent="1" target="OJeF9dpvGbuUOfPej2OF-24">
          <mxGeometry width="50" height="50" relative="1" as="geometry">
            <mxPoint x="110" y="390" as="sourcePoint" />
            <mxPoint x="160" y="420" as="targetPoint" />
          </mxGeometry>
        </mxCell>
        <mxCell id="OJeF9dpvGbuUOfPej2OF-38" value="" style="endArrow=none;html=1;rounded=0;" edge="1" parent="1">
          <mxGeometry width="50" height="50" relative="1" as="geometry">
            <mxPoint x="120" y="340" as="sourcePoint" />
            <mxPoint x="160" y="310" as="targetPoint" />
          </mxGeometry>
        </mxCell>
        <mxCell id="OJeF9dpvGbuUOfPej2OF-39" value="" style="endArrow=none;html=1;rounded=0;entryX=0;entryY=0.5;entryDx=0;entryDy=0;exitX=1;exitY=0.5;exitDx=0;exitDy=0;" edge="1" parent="1" source="OJeF9dpvGbuUOfPej2OF-9" target="OJeF9dpvGbuUOfPej2OF-11">
          <mxGeometry width="50" height="50" relative="1" as="geometry">
            <mxPoint x="230" y="360" as="sourcePoint" />
            <mxPoint x="280" y="310" as="targetPoint" />
          </mxGeometry>
        </mxCell>
        <mxCell id="OJeF9dpvGbuUOfPej2OF-42" value="" style="shape=flexArrow;endArrow=classic;startArrow=classic;html=1;rounded=0;" edge="1" parent="1" source="OJeF9dpvGbuUOfPej2OF-2">
          <mxGeometry width="100" height="100" relative="1" as="geometry">
            <mxPoint x="180" y="480" as="sourcePoint" />
            <mxPoint x="340" y="400" as="targetPoint" />
          </mxGeometry>
        </mxCell>
        <mxCell id="OJeF9dpvGbuUOfPej2OF-44" value="" style="shape=flexArrow;endArrow=classic;startArrow=classic;html=1;rounded=0;entryX=0;entryY=0.5;entryDx=0;entryDy=0;exitX=1.115;exitY=0.584;exitDx=0;exitDy=0;exitPerimeter=0;" edge="1" parent="1" source="OJeF9dpvGbuUOfPej2OF-22" target="OJeF9dpvGbuUOfPej2OF-41">
          <mxGeometry width="100" height="100" relative="1" as="geometry">
            <mxPoint x="340" y="470" as="sourcePoint" />
            <mxPoint x="440" y="370" as="targetPoint" />
          </mxGeometry>
        </mxCell>
        <mxCell id="OJeF9dpvGbuUOfPej2OF-45" value="...." style="rounded=1;whiteSpace=wrap;html=1;" vertex="1" parent="1">
          <mxGeometry x="510" y="480" width="90" height="30" as="geometry" />
        </mxCell>
      </root>
    </mxGraphModel>
  </diagram>
</mxfile>
